<svg width="1040" height="1040" viewBox="0 0 1040 1040" fill="none" xmlns="http://www.w3.org/2000/svg">
<g filter="url(#filter0_dd_707_8)">
<g filter="url(#filter1_dd_707_8)">
<rect x="8" y="8" width="1024" height="1024" rx="100" fill="url(#paint0_linear_707_8)"/>
</g>
<path d="M179.28 337.16C183.44 335.88 188.32 333.56 193.92 330.2C198.72 335.8 201.2 342.12 201.36 349.16C195.28 352.2 187.04 355.24 176.64 358.28C174.72 372.84 173.76 383.8 173.76 391.16C173.76 398.52 175.04 402.2 177.6 402.2C181.6 402.2 186.64 398.6 192.72 391.4C198.8 384.2 204.56 374.28 210 361.64C215.44 349 218.8 336.28 220.08 323.48C220.08 307.8 213.28 293.16 199.68 279.56C203.2 272.68 207.76 266.44 213.36 260.84C219.12 255.24 223.92 251.32 227.76 249.08L233.52 245.96C240.72 245.96 246.88 250.12 252 258.44C257.28 266.6 259.92 276.6 259.92 288.44C259.92 300.12 256.56 314.68 249.84 332.12C243.12 349.56 234.8 365.72 224.88 380.6C214.96 395.48 203.76 408.12 191.28 418.52C178.8 428.76 167.04 433.88 156 433.88C144.96 433.88 137.28 430.68 132.96 424.28C128.8 417.88 126.72 409 126.72 397.64C126.72 392.04 127.6 379.56 129.36 360.2C114.64 359.4 102.96 354.44 94.32 345.32C85.68 336.04 81.36 325.56 81.36 313.88C81.36 298.84 88.16 286.2 101.76 275.96C115.36 265.72 129.84 260.6 145.2 260.6C156.08 260.6 165.04 264.12 172.08 271.16C179.12 278.04 182.64 288.76 182.64 303.32C182.64 309.24 181.52 320.52 179.28 337.16ZM134.88 304.52C134.88 290.12 131.12 282.92 123.6 282.92C118.48 282.92 113.36 286.04 108.24 292.28C103.28 298.52 100.8 305.72 100.8 313.88C100.8 322.04 103.68 328.6 109.44 333.56C115.36 338.36 122.72 340.76 131.52 340.76C133.76 323.16 134.88 311.08 134.88 304.52ZM313.794 341C313.794 348.04 311.794 359 307.794 373.88C303.794 388.6 301.794 398.2 301.794 402.68C301.794 407.16 302.674 409.4 304.434 409.4C306.194 409.4 309.394 408.6 314.034 407L316.194 406.04L320.514 418.04C315.074 422.2 308.274 425.88 300.114 429.08C292.114 432.28 284.834 433.88 278.274 433.88C271.714 433.88 266.514 432.04 262.674 428.36C258.994 424.68 257.154 419.4 257.154 412.52C257.154 405.48 259.074 394.84 262.914 380.6C266.914 366.2 268.914 357.08 268.914 353.24C268.914 347.32 266.834 341.72 262.674 336.44L260.754 333.8L261.474 329.72C269.794 327.16 285.954 325.88 309.954 325.88C312.514 328.76 313.794 333.8 313.794 341ZM295.794 307.16C288.594 307.16 282.914 305.24 278.754 301.4C274.754 297.56 272.754 292.68 272.754 286.76C272.754 280.68 275.234 275.64 280.194 271.64C285.314 267.48 291.474 265.4 298.674 265.4C305.874 265.4 311.474 267.08 315.474 270.44C319.474 273.8 321.474 278.52 321.474 284.6C321.474 290.68 318.994 295.96 314.034 300.44C309.234 304.92 303.154 307.16 295.794 307.16ZM388.628 420.68C377.428 426.76 367.428 429.8 358.628 429.8C349.988 429.8 342.708 426.36 336.788 419.48C331.028 412.44 328.148 402.04 328.148 388.28C328.148 369.88 333.108 354.68 343.028 342.68C353.108 330.68 365.108 324.68 379.028 324.68C385.748 324.68 393.348 326.52 401.828 330.2C411.748 327.16 423.028 325.64 435.668 325.64H439.748C440.548 327.24 440.948 330.84 440.948 336.44C440.948 341.88 439.908 352.68 437.828 368.84C435.908 385 433.748 398.52 431.348 409.4C426.228 432.6 418.228 450.92 407.348 464.36C396.628 477.96 383.108 484.76 366.788 484.76C358.788 484.76 352.228 483 347.108 479.48C342.148 475.96 339.668 471.48 339.668 466.04C339.668 460.6 340.948 456.04 343.508 452.36C346.228 448.84 350.068 445.88 355.028 443.48C363.508 439.32 373.908 435.88 386.228 433.16L388.628 420.68ZM390.068 344.12C384.468 344.12 380.148 348.92 377.108 358.52C374.228 368.12 372.788 378.52 372.788 389.72C372.788 400.92 375.428 406.52 380.708 406.52C382.948 406.52 386.228 405.4 390.548 403.16C391.828 390.2 393.908 371 396.788 345.56C394.388 344.6 392.148 344.12 390.068 344.12ZM362.708 467C365.748 467 369.188 465.48 373.028 462.44C377.028 459.4 380.308 454.44 382.867 447.56C365.428 450.6 356.708 455.24 356.708 461.48C357.028 465.16 359.028 467 362.708 467ZM520.851 267.56C520.851 278.76 516.771 301.8 508.611 336.68C522.371 328.84 533.171 324.92 541.011 324.92C549.011 324.92 554.931 327.08 558.771 331.4C562.611 335.56 564.531 340.84 564.531 347.24C564.531 353.48 562.771 363.4 559.251 377C555.731 390.44 553.971 399.24 553.971 403.4C553.971 407.56 554.611 409.64 555.891 409.64L568.371 406.28L572.691 418.28C567.731 421.96 560.851 425.48 552.051 428.84C543.411 432.2 535.731 433.88 529.011 433.88C516.051 433.88 509.571 426.52 509.571 411.8C509.571 405.08 511.251 395.16 514.611 382.04C517.971 368.92 519.651 360.68 519.651 357.32C519.651 353.8 518.451 352.04 516.051 352.04C512.691 352.04 508.611 353.64 503.811 356.84C496.611 387.4 493.011 408.68 493.011 420.68L493.251 426.44C476.931 430.76 462.291 432.92 449.331 432.92C448.371 432.44 447.891 429.88 447.891 425.24C447.891 415.32 452.611 390.76 462.051 351.56C471.651 312.36 476.451 285.96 476.451 272.36C476.451 268.2 476.131 264.52 475.491 261.32C491.011 257 505.571 254.84 519.171 254.84C520.291 257.56 520.851 261.8 520.851 267.56ZM584.918 432.44H580.838C580.838 422.52 583.078 407.48 587.558 387.32C592.198 367.16 594.518 355.56 594.518 352.52C594.518 349.48 593.798 346.52 592.358 343.64C590.918 340.76 589.478 338.6 588.038 337.16L585.878 335L586.358 331.4C595.798 328.36 612.278 326.84 635.797 326.84C637.398 330.52 638.518 334.36 639.158 338.36C653.718 329.4 665.958 324.92 675.878 324.92C682.598 324.92 687.878 327.16 691.718 331.64C695.558 335.96 697.478 341.24 697.478 347.48C697.478 353.56 695.718 363.4 692.198 377C688.678 390.6 686.918 399.48 686.918 403.64C686.918 407.64 687.478 409.64 688.598 409.64L701.318 406.28L705.638 418.28C700.518 422.12 693.798 425.72 685.478 429.08C677.318 432.28 669.798 433.88 662.918 433.88C649.318 433.88 642.518 426.84 642.518 412.76C642.518 406.68 644.198 396.76 647.558 383C650.918 369.24 652.598 360.68 652.598 357.32C652.598 353.8 651.478 352.04 649.238 352.04C646.358 352.04 642.518 353.64 637.718 356.84C637.078 359.72 635.478 366.68 632.918 377.72C627.798 400.92 625.238 417.64 625.238 427.88C617.398 430.92 603.958 432.44 584.918 432.44ZM829.648 333.8C826.288 344.2 823.408 356.6 821.008 371C818.608 385.24 817.408 395.24 817.408 401C817.408 406.6 818.288 409.4 820.048 409.4L832.048 406.04L836.368 418.04C831.248 422.04 824.688 425.72 816.688 429.08C808.848 432.28 801.888 433.88 795.808 433.88C785.408 433.88 778.848 429.4 776.128 420.44C763.488 429.4 752.288 433.88 742.528 433.88C732.928 433.88 725.488 430.36 720.208 423.32C714.928 416.28 712.288 406.2 712.288 393.08C712.288 375 716.928 359.08 726.208 345.32C735.488 331.56 747.728 324.68 762.928 324.68C771.248 324.68 779.728 327 788.368 331.64C789.648 328.76 790.688 326.68 791.488 325.4C803.008 325.4 815.728 328.2 829.648 333.8ZM757.408 390.2C757.408 398.2 757.968 403.24 759.088 405.32C760.208 407.4 762.288 408.44 765.328 408.44C768.368 408.44 771.328 407.24 774.208 404.84C774.848 386.28 777.888 366.84 783.328 346.52C780.928 345.08 778.128 344.36 774.928 344.36C771.888 344.36 769.088 346.12 766.528 349.64C764.128 353.16 762.288 357.56 761.008 362.84C758.608 372.92 757.408 382.04 757.408 390.2ZM545.895 680.44C546.535 678.52 547.975 676.92 550.215 675.64C552.455 674.36 555.255 673.72 558.615 673.72C561.975 673.72 564.935 674.36 567.495 675.64C579.015 666.68 584.775 654.12 584.775 637.96C584.775 627.72 581.735 620.28 575.655 615.64C569.575 610.84 560.135 608.44 547.335 608.44C527.495 608.44 510.775 611.56 497.175 617.8C483.575 623.88 476.775 631.4 476.775 640.36C476.775 644.04 478.295 647 481.335 649.24C484.535 651.48 487.815 652.92 491.175 653.56C491.335 655 491.415 656.76 491.415 658.84C491.415 667.48 489.975 673.88 487.095 678.04C479.575 677.08 472.775 673.8 466.695 668.2C460.615 662.6 457.575 654.52 457.575 643.96C457.575 627.32 466.775 614.12 485.175 604.36C503.735 594.6 527.335 589.72 555.975 589.72C578.855 589.72 596.935 593.72 610.215 601.72C623.495 609.72 630.135 621.4 630.135 636.76C630.135 647.64 625.895 657.4 617.415 666.04C609.095 674.68 599.015 681.8 587.175 687.4C592.935 693 600.935 708.52 611.175 733.96C621.415 759.4 629.415 772.12 635.175 772.12C636.295 772.12 637.815 771.8 639.735 771.16L644.295 783.88C634.855 790.28 624.215 793.48 612.375 793.48C600.695 793.48 592.215 790.92 586.935 785.8C581.815 780.68 577.415 770.12 573.735 754.12C573.095 751.4 572.055 746.36 570.615 739C566.935 721.56 563.975 709.16 561.735 701.8H557.655C553.495 701.8 549.975 700.12 547.095 696.76C545.815 695.8 545.175 693.32 545.175 689.32C545.175 685.16 545.415 682.2 545.895 680.44ZM504.615 646.12C504.615 643.08 504.215 640.84 503.415 639.4C502.775 637.96 501.255 635.88 498.855 633.16V630.28C502.055 628.36 507.255 626.68 514.455 625.24C521.655 623.64 527.975 622.84 533.415 622.84C542.215 622.84 548.055 623.24 550.935 624.04C551.895 625.64 552.375 628.92 552.375 633.88C552.375 638.84 548.215 657.24 539.895 689.08C531.735 720.76 526.935 744.52 525.495 760.36C513.975 763.08 501.015 764.44 486.615 764.44C482.775 764.44 480.135 764.2 478.695 763.72C479.495 753.8 483.975 734.04 492.135 704.44C500.455 674.84 504.615 655.4 504.615 646.12ZM694.419 673C694.419 680.04 692.419 691 688.419 705.88C684.419 720.6 682.419 730.2 682.419 734.68C682.419 739.16 683.299 741.4 685.059 741.4C686.819 741.4 690.019 740.6 694.659 739L696.819 738.04L701.139 750.04C695.699 754.2 688.899 757.88 680.739 761.08C672.739 764.28 665.459 765.88 658.899 765.88C652.339 765.88 647.139 764.04 643.299 760.36C639.619 756.68 637.779 751.4 637.779 744.52C637.779 737.48 639.699 726.84 643.539 712.6C647.539 698.2 649.539 689.08 649.539 685.24C649.539 679.32 647.459 673.72 643.299 668.44L641.379 665.8L642.099 661.72C650.419 659.16 666.579 657.88 690.579 657.88C693.139 660.76 694.419 665.8 694.419 673ZM676.419 639.16C669.219 639.16 663.539 637.24 659.379 633.4C655.379 629.56 653.379 624.68 653.379 618.76C653.379 612.68 655.859 607.64 660.819 603.64C665.939 599.48 672.099 597.4 679.299 597.4C686.499 597.4 692.099 599.08 696.099 602.44C700.099 605.8 702.099 610.52 702.099 616.6C702.099 622.68 699.619 627.96 694.659 632.44C689.859 636.92 683.779 639.16 676.419 639.16ZM792.293 765.88C782.373 765.88 775.973 762.04 773.093 754.36C760.933 762.04 750.053 765.88 740.453 765.88C731.013 765.88 723.333 762.68 717.413 756.28C711.653 749.72 708.773 739.16 708.773 724.6C708.773 705.56 713.573 689.48 723.173 676.36C732.933 663.24 745.493 656.68 760.853 656.68C768.373 656.68 775.893 658.44 783.413 661.96C789.333 634.92 792.293 615.48 792.293 603.64C792.293 600.12 792.053 596.6 791.573 593.08C806.453 588.92 820.773 586.84 834.533 586.84C835.813 588.92 836.453 593.88 836.453 601.72C836.453 609.4 832.773 630.2 825.413 664.12C818.213 698.04 814.613 720.76 814.613 732.28C814.613 738.36 815.653 741.4 817.733 741.4L828.053 738.04L832.373 750.28C818.293 760.68 804.933 765.88 792.293 765.88ZM760.853 741.64C763.733 741.64 766.933 740.68 770.453 738.76V738.52C771.093 725.56 774.213 705.16 779.813 677.32C776.613 676.36 774.293 675.88 772.853 675.88C769.493 675.88 766.533 677.56 763.973 680.92C761.413 684.28 759.413 688.6 757.973 693.88C755.253 704.76 753.893 715.48 753.893 726.04C753.893 736.44 756.213 741.64 760.853 741.64ZM836.691 719.56C836.691 699.72 842.691 684.28 854.691 673.24C866.851 662.2 881.811 656.68 899.571 656.68C911.891 656.68 921.731 659.4 929.091 664.84C936.611 670.12 940.371 677.24 940.371 686.2C940.371 692.76 938.371 698.6 934.371 703.72C930.371 708.84 925.491 712.76 919.731 715.48C907.571 720.92 897.011 724.2 888.051 725.32L882.051 726.04C883.811 736.6 889.091 741.88 897.891 741.88C901.731 741.88 905.971 741.08 910.611 739.48C915.251 737.72 918.931 735.96 921.651 734.2L925.731 731.8L933.411 742.12C933.411 742.12 932.531 743 930.771 744.76C929.811 745.72 927.491 747.64 923.811 750.52C920.291 753.24 916.531 755.64 912.531 757.72C908.691 759.8 903.731 761.64 897.651 763.24C891.571 765 885.491 765.88 879.411 765.88C865.811 765.88 855.251 761.96 847.731 754.12C840.371 746.12 836.691 734.6 836.691 719.56ZM881.091 710.2C885.731 709.56 890.371 705.8 895.011 698.92C899.651 691.88 901.971 686.04 901.971 681.4C901.971 676.6 900.611 674.2 897.891 674.2C893.891 674.2 890.211 677.32 886.851 683.56C883.491 689.8 881.571 698.68 881.091 710.2Z" fill="#EDF6FF"/>
</g>
<defs>
<filter id="filter0_dd_707_8" x="0" y="0" width="1040" height="1040" filterUnits="userSpaceOnUse" color-interpolation-filters="sRGB">
<feFlood flood-opacity="0" result="BackgroundImageFix"/>
<feColorMatrix in="SourceAlpha" type="matrix" values="0 0 0 0 0 0 0 0 0 0 0 0 0 0 0 0 0 0 127 0" result="hardAlpha"/>
<feOffset dx="-4" dy="-4"/>
<feGaussianBlur stdDeviation="2"/>
<feComposite in2="hardAlpha" operator="out"/>
<feColorMatrix type="matrix" values="0 0 0 0 0 0 0 0 0 0 0 0 0 0 0 0 0 0 0.25 0"/>
<feBlend mode="normal" in2="BackgroundImageFix" result="effect1_dropShadow_707_8"/>
<feColorMatrix in="SourceAlpha" type="matrix" values="0 0 0 0 0 0 0 0 0 0 0 0 0 0 0 0 0 0 127 0" result="hardAlpha"/>
<feOffset dx="4" dy="4"/>
<feGaussianBlur stdDeviation="2"/>
<feComposite in2="hardAlpha" operator="out"/>
<feColorMatrix type="matrix" values="0 0 0 0 0 0 0 0 0 0 0 0 0 0 0 0 0 0 0.25 0"/>
<feBlend mode="normal" in2="effect1_dropShadow_707_8" result="effect2_dropShadow_707_8"/>
<feBlend mode="normal" in="SourceGraphic" in2="effect2_dropShadow_707_8" result="shape"/>
</filter>
<filter id="filter1_dd_707_8" x="0" y="0" width="1040" height="1040" filterUnits="userSpaceOnUse" color-interpolation-filters="sRGB">
<feFlood flood-opacity="0" result="BackgroundImageFix"/>
<feColorMatrix in="SourceAlpha" type="matrix" values="0 0 0 0 0 0 0 0 0 0 0 0 0 0 0 0 0 0 127 0" result="hardAlpha"/>
<feOffset dx="4" dy="4"/>
<feGaussianBlur stdDeviation="2"/>
<feComposite in2="hardAlpha" operator="out"/>
<feColorMatrix type="matrix" values="0 0 0 0 0 0 0 0 0 0 0 0 0 0 0 0 0 0 0.25 0"/>
<feBlend mode="normal" in2="BackgroundImageFix" result="effect1_dropShadow_707_8"/>
<feColorMatrix in="SourceAlpha" type="matrix" values="0 0 0 0 0 0 0 0 0 0 0 0 0 0 0 0 0 0 127 0" result="hardAlpha"/>
<feOffset dx="-4" dy="-4"/>
<feGaussianBlur stdDeviation="2"/>
<feComposite in2="hardAlpha" operator="out"/>
<feColorMatrix type="matrix" values="0 0 0 0 0 0 0 0 0 0 0 0 0 0 0 0 0 0 0.25 0"/>
<feBlend mode="normal" in2="effect1_dropShadow_707_8" result="effect2_dropShadow_707_8"/>
<feBlend mode="normal" in="SourceGraphic" in2="effect2_dropShadow_707_8" result="shape"/>
</filter>
<linearGradient id="paint0_linear_707_8" x1="520" y1="8" x2="520" y2="1032" gradientUnits="userSpaceOnUse">
<stop stop-color="#1976D2"/>
<stop offset="1" stop-color="#535AFF"/>
</linearGradient>
</defs>
</svg>
